<svg width="159" height="29" viewBox="0 0 159 29" fill="none" xmlns="http://www.w3.org/2000/svg">
<path d="M11.6972 25.6462C10.0115 25.6462 8.45443 25.3615 7.03893 24.792C5.62342 24.2226 4.38807 23.4331 3.33287 22.4235C2.27768 21.414 1.45411 20.2233 0.875041 18.8514C0.29597 17.4795 0 15.9911 0 14.3992C0 12.7813 0.283101 11.2929 0.862172 9.94692C1.44124 8.58795 2.23907 7.41018 3.29427 6.40066C4.3366 5.39114 5.57195 4.60165 6.98745 4.04512C8.40296 3.48859 9.96002 3.2168 11.6458 3.2168C13.3315 3.2168 14.8886 3.48859 16.3041 4.04512C17.7196 4.60165 18.9549 5.3782 19.9972 6.40066C21.0396 7.41018 21.8503 8.6009 22.4293 9.95986C23.0084 11.3188 23.2915 12.8202 23.2915 14.438C23.2915 16.0299 23.0084 17.5183 22.4293 18.8773C21.8503 20.2362 21.0524 21.4399 19.9972 22.4494C18.9549 23.4719 17.7324 24.2614 16.3169 24.8179C14.9014 25.3744 13.3701 25.6462 11.6972 25.6462ZM11.6329 20.3139C12.7524 20.3139 13.7304 20.068 14.554 19.5891C15.3775 19.1102 16.0081 18.4113 16.4585 17.5313C16.896 16.6382 17.1276 15.6028 17.1276 14.4121C17.1276 13.5191 16.9989 12.7166 16.7545 12.0048C16.4971 11.2929 16.1368 10.6717 15.6478 10.154C15.1717 9.6363 14.5926 9.24802 13.9106 8.97623C13.2414 8.70444 12.4822 8.56207 11.6329 8.56207C10.5134 8.56207 9.53537 8.79504 8.7118 9.27391C7.88823 9.75278 7.25769 10.4258 6.8073 11.3059C6.36978 12.186 6.13815 13.2214 6.13815 14.4121C6.13815 15.3181 6.26683 16.1464 6.51133 16.8712C6.76869 17.596 7.12901 18.2172 7.618 18.7349C8.09412 19.2526 8.67319 19.6409 9.35521 19.9127C10.0372 20.1715 10.7965 20.3139 11.6329 20.3139Z" fill="#FF3333"/>
<path d="M25.0545 13.4284L27.4094 9.00209L29.0308 8.5491C28.8507 8.89854 28.6448 9.18328 28.4003 9.41625C28.1558 9.64921 27.8855 9.76569 27.5896 9.76569C26.9076 9.76569 26.277 9.48096 25.7108 8.89854C25.1317 8.31613 24.8486 7.60429 24.8486 6.73714C24.8486 5.80528 25.1575 5.00284 25.788 4.34277C26.4057 3.66975 27.1907 3.34619 28.1429 3.34619C29.0308 3.34619 29.79 3.66975 30.4463 4.32982C31.1026 4.98989 31.4243 5.79233 31.4243 6.73714C31.4243 7.12542 31.36 7.56546 31.2184 8.07022C31.0769 8.57498 30.7809 9.23505 30.3434 10.0375L27.7183 14.8909L25.0545 13.4284Z" fill="#FF3333"/>
<path d="M36.8288 25.6723C35.9023 25.6723 34.9758 25.5558 34.0493 25.3099C33.1228 25.064 32.2606 24.7274 31.4756 24.3133C30.6778 23.8862 30.0087 23.4073 29.4682 22.8637L32.5694 19.654C33.0456 20.1328 33.6246 20.5211 34.3067 20.8059C34.9758 21.0906 35.6836 21.233 36.4299 21.233C36.7774 21.233 37.0347 21.1812 37.2278 21.0906C37.4208 21 37.5109 20.8706 37.5109 20.7153C37.5109 20.4305 37.3436 20.2234 37.009 20.0811C36.6744 19.9387 36.2498 19.8093 35.7479 19.6928C35.2332 19.5763 34.6927 19.421 34.1265 19.2269C33.5474 19.0327 33.007 18.7739 32.4794 18.4374C31.9518 18.1009 31.54 17.6349 31.2183 17.0396C30.8966 16.4442 30.7422 15.6806 30.7422 14.7487C30.7422 13.8039 31.0124 12.9497 31.54 12.212C32.0676 11.4743 32.8268 10.8919 33.8048 10.4518C34.7828 10.0118 35.9152 9.80469 37.202 9.80469C38.5017 9.80469 39.7757 10.0247 40.9981 10.4777C42.2206 10.9177 43.1986 11.5908 43.9192 12.4838L40.7794 15.6935C40.2775 15.1241 39.7242 14.7487 39.1194 14.5546C38.5146 14.3605 38.0127 14.2699 37.6138 14.2699C37.2278 14.2699 36.9704 14.3216 36.816 14.4381C36.6615 14.5546 36.5843 14.684 36.5843 14.8523C36.5843 15.0723 36.7388 15.2535 37.0605 15.3959C37.3822 15.5382 37.794 15.6677 38.3087 15.7841C38.8234 15.9006 39.3639 16.0689 39.9172 16.263C40.4834 16.4701 41.0239 16.7419 41.5257 17.1172C42.0405 17.4796 42.4523 17.9585 42.774 18.5538C43.0957 19.1492 43.2501 19.9258 43.2501 20.8706C43.2501 22.346 42.671 23.5238 41.5 24.3909C40.3676 25.2451 38.7977 25.6723 36.8288 25.6723Z" fill="#FF3333"/>
<path d="M53.2616 25.5814C51.5373 25.5814 50.0188 25.2578 48.7062 24.5977C47.3937 23.9377 46.3771 23.0188 45.6436 21.841C44.9101 20.6632 44.5498 19.3042 44.5498 17.7641C44.5498 16.2498 44.9101 14.9038 45.6179 13.726C46.3256 12.5482 47.3165 11.6293 48.5518 10.9563C49.8 10.2833 51.2027 9.94678 52.7726 9.94678C54.3168 9.94678 55.6808 10.2703 56.8776 10.9045C58.0615 11.5387 58.988 12.4317 59.67 13.5577C60.3391 14.6837 60.6737 15.978 60.6737 17.4405C60.6737 17.7382 60.6608 18.0618 60.6222 18.3983C60.5965 18.7348 60.5322 19.123 60.4292 19.5631L47.0462 19.6537V16.0168L58.2287 15.9262L55.4878 17.5311C55.4878 16.7287 55.3977 16.0557 55.2047 15.5509C55.0117 15.0332 54.7286 14.6449 54.3425 14.3861C53.9565 14.1272 53.4804 13.9978 52.9013 13.9978C52.2965 13.9978 51.7818 14.1531 51.3314 14.4508C50.8938 14.7485 50.5464 15.1885 50.3276 15.758C50.096 16.3275 49.9802 17.0134 49.9802 17.8158C49.9802 18.6442 50.1089 19.3431 50.3534 19.8867C50.6107 20.4432 50.9711 20.8573 51.46 21.1421C51.9362 21.4268 52.541 21.5692 53.2745 21.5692C53.9822 21.5692 54.5999 21.4527 55.1275 21.2197C55.6551 20.9868 56.1441 20.6244 56.5945 20.1067L59.5542 23.0446C58.8078 23.8988 57.9199 24.533 56.8776 24.9601C55.8095 25.3743 54.6128 25.5814 53.2616 25.5814Z" fill="#FF3333"/>
<path d="M69.9646 25.5814C68.3561 25.5814 66.9148 25.2449 65.628 24.5848C64.3412 23.9118 63.3246 22.9929 62.5782 21.8151C61.8319 20.6373 61.4587 19.2913 61.4587 17.8029C61.4587 16.2886 61.8319 14.9426 62.5911 13.7519C63.3503 12.5741 64.3669 11.6423 65.6666 10.9563C66.9663 10.2833 68.4204 9.94678 70.0547 9.94678C71.2257 9.94678 72.268 10.128 73.2074 10.4904C74.1468 10.8528 75.009 11.4093 75.8197 12.16L72.1136 15.8874C71.8562 15.6415 71.5603 15.4603 71.2386 15.3438C70.9169 15.2273 70.5308 15.1626 70.0676 15.1626C69.5914 15.1626 69.1539 15.2662 68.755 15.4862C68.369 15.6933 68.0472 15.9909 67.8028 16.3792C67.5583 16.7675 67.4424 17.2205 67.4424 17.7382C67.4424 18.2688 67.5583 18.7218 67.8028 19.123C68.0472 19.5113 68.369 19.8219 68.7679 20.042C69.1668 20.262 69.6043 20.3785 70.0676 20.3785C70.5952 20.3785 71.0198 20.3008 71.3673 20.1326C71.7147 19.9773 72.0107 19.7443 72.268 19.4595L75.9741 23.187C75.1119 23.9894 74.2111 24.5977 73.2589 24.986C72.3066 25.3872 71.2128 25.5814 69.9646 25.5814Z" fill="#FF3333"/>
<path d="M109.509 25.581C108.068 25.581 106.781 25.2963 105.661 24.7268C104.542 24.1574 103.667 23.3808 103.023 22.3713C102.38 21.3618 102.058 20.2099 102.058 18.9156V10.3088H107.965V18.9803C107.965 19.278 108.029 19.5628 108.158 19.7957C108.286 20.0416 108.466 20.2228 108.698 20.3523C108.93 20.4817 109.2 20.5464 109.496 20.5464C109.921 20.5464 110.281 20.404 110.564 20.1063C110.86 19.8087 111.001 19.4333 111.001 18.9674V10.2959H116.921V18.9027C116.921 20.2228 116.599 21.3747 115.969 22.3713C115.338 23.3679 114.463 24.1574 113.343 24.7268C112.237 25.2963 110.95 25.581 109.509 25.581Z" fill="#FF3333"/>
<path d="M119.366 25.219V10.3092H125.272V25.219H119.366ZM125.272 17.1558L122.531 14.6967C123.291 13.0789 124.179 11.8881 125.195 11.1375C126.212 10.3739 127.486 9.99854 129.004 9.99854C129.686 9.99854 130.278 10.0762 130.767 10.2444C131.256 10.4127 131.655 10.6327 131.964 10.9433L128.644 15.6674C128.502 15.5121 128.296 15.3697 128.026 15.2532C127.756 15.1367 127.434 15.085 127.074 15.085C126.469 15.085 126.019 15.2662 125.723 15.6156C125.427 15.978 125.272 16.4957 125.272 17.1558Z" fill="#FF3333"/>
<path d="M138.359 25.6723C137.433 25.6723 136.506 25.5558 135.58 25.3099C134.653 25.064 133.791 24.7274 133.006 24.3133C132.208 23.8862 131.539 23.4073 130.999 22.8637L134.1 19.654C134.576 20.1328 135.155 20.5211 135.837 20.8059C136.506 21.0906 137.214 21.233 137.96 21.233C138.308 21.233 138.565 21.1812 138.758 21.0906C138.951 21 139.041 20.8706 139.041 20.7153C139.041 20.4305 138.874 20.2234 138.54 20.0811C138.205 19.9387 137.78 19.8093 137.278 19.6928C136.764 19.5763 136.223 19.421 135.657 19.2269C135.078 19.0327 134.537 18.7739 134.01 18.4374C133.482 18.1009 133.071 17.6349 132.749 17.0396C132.427 16.4442 132.273 15.6806 132.273 14.7487C132.273 13.8039 132.543 12.9497 133.071 12.212C133.598 11.4743 134.357 10.8919 135.335 10.4518C136.313 10.0118 137.446 9.80469 138.733 9.80469C140.032 9.80469 141.306 10.0247 142.529 10.4777C143.751 10.9177 144.729 11.5908 145.45 12.4838L142.31 15.6935C141.808 15.1241 141.255 14.7487 140.65 14.5546C140.045 14.3605 139.543 14.2699 139.144 14.2699C138.758 14.2699 138.501 14.3216 138.346 14.4381C138.192 14.5546 138.115 14.684 138.115 14.8523C138.115 15.0723 138.269 15.2535 138.591 15.3959C138.913 15.5382 139.324 15.6677 139.839 15.7841C140.354 15.9006 140.894 16.0689 141.448 16.263C142.014 16.4701 142.554 16.7419 143.056 17.1172C143.571 17.4796 143.983 17.9585 144.304 18.5538C144.626 19.1492 144.781 19.9258 144.781 20.8706C144.781 22.346 144.202 23.5238 143.031 24.3909C141.885 25.2451 140.328 25.6723 138.359 25.6723Z" fill="#FF3333"/>
<path d="M155.744 25.5813C154.805 25.5813 154.02 25.2578 153.389 24.6106C152.772 23.9635 152.45 23.174 152.45 22.2421C152.45 21.2973 152.759 20.4949 153.389 19.8478C154.007 19.2006 154.792 18.8771 155.744 18.8771C156.684 18.8771 157.469 19.2006 158.086 19.8478C158.704 20.4949 159 21.2973 159 22.2421C159 23.174 158.691 23.9635 158.086 24.6106C157.469 25.2578 156.684 25.5813 155.744 25.5813ZM153.544 16.638L152.489 3.02246H158.974L157.919 16.638H153.544Z" fill="#FF3333"/>
<path d="M89.6272 12.7681L89.4599 11.3315L89.0481 7.81115C89.0224 7.57818 88.8165 7.42287 88.5977 7.43581C88.5591 7.43581 88.5205 7.44875 88.4691 7.47464L83.399 9.84313C83.2317 9.92078 83.1416 10.089 83.1545 10.2702L83.2188 10.8785C83.2188 10.8915 83.2188 10.9174 83.2317 10.9303V10.9691C83.2317 10.995 83.2317 11.008 83.2446 11.0338V11.0727C83.2446 11.1115 83.2574 11.1374 83.2574 11.1762C83.2574 11.215 83.2703 11.2668 83.2703 11.3056V11.3315C83.2703 11.3703 83.2832 11.4092 83.2832 11.448C83.2832 11.4739 83.296 11.4998 83.296 11.5257C83.296 11.5774 83.3089 11.6292 83.3089 11.668C83.3089 11.6939 83.3218 11.7198 83.3218 11.7457V11.7716V11.7845V11.7975C83.3218 11.8104 83.3346 11.8233 83.3346 11.8363V11.8492C83.3346 11.8492 83.3346 11.8622 83.3475 11.8622C83.3475 11.8622 83.3475 11.8751 83.3604 11.8751C83.3604 11.888 83.3732 11.888 83.3732 11.901C83.3732 11.901 83.3732 11.9139 83.3861 11.9139C83.3861 11.9269 83.399 11.9269 83.399 11.9398C83.399 11.9398 83.399 11.9398 83.4118 11.9528L83.4247 11.9657C83.4247 11.9786 83.4376 11.9786 83.4504 11.9916L83.4633 12.0045L83.4762 12.0175C83.489 12.0175 83.489 12.0304 83.5019 12.0304C83.5148 12.0304 83.5148 12.0434 83.5277 12.0434C83.5277 12.0434 83.5405 12.0434 83.5405 12.0563C83.5405 12.0563 83.5534 12.0563 83.5534 12.0692H83.5663H83.5791C83.592 12.0692 83.6049 12.0822 83.6177 12.0822L84.274 12.2116L84.4027 13.26C84.4284 13.5188 84.5957 13.7388 84.8402 13.8424L84.9946 13.9071C85.5094 14.1271 86.0756 13.7129 86.0112 13.1564L85.9469 12.5481L88.276 13.027L89.1253 13.2082C89.1639 13.2211 89.2154 13.2211 89.254 13.2082C89.4985 13.1952 89.6529 13.0011 89.6272 12.7681ZM84.8273 11.2668C84.57 11.2539 84.3898 11.0338 84.4027 10.775C84.4156 10.5161 84.6343 10.3349 84.8917 10.3479C85.149 10.3608 85.3292 10.5809 85.3163 10.8397C85.3035 11.0986 85.0847 11.2927 84.8273 11.2668ZM86.1914 11.1374C85.934 11.1244 85.7539 10.9044 85.7667 10.6456C85.7796 10.3867 85.9984 10.2055 86.2557 10.2185C86.5131 10.2314 86.6932 10.4514 86.6804 10.7103C86.6546 10.9691 86.4359 11.1633 86.1914 11.1374ZM87.4525 10.9821C87.1951 10.9691 87.0149 10.7491 87.0278 10.4903C87.0407 10.2314 87.2594 10.0502 87.5168 10.0631C87.7742 10.0761 87.9543 10.2961 87.9415 10.555C87.9286 10.8009 87.7098 10.995 87.4525 10.9821Z" fill="#FF3333"/>
<path d="M91.6348 8.53628C91.4933 8.21272 91.03 8.25155 90.9399 8.58805L90.927 8.65276H90.9142C90.9142 8.67865 90.927 8.70453 90.927 8.71748C90.927 8.73042 90.927 8.7563 90.9399 8.76925C91.1072 9.13164 91.2102 9.53286 91.2488 9.94702C91.2874 10.3224 91.2616 10.6847 91.1844 11.0471C91.1715 11.1248 91.1844 11.2024 91.2102 11.2672C91.3517 11.5907 91.8278 11.539 91.8922 11.1895C91.9822 10.7753 92.008 10.3224 91.9694 9.88231C91.9308 9.41637 91.815 8.95044 91.6348 8.53628Z" fill="#FF3333"/>
<path d="M93.0503 7.33241C92.8444 6.73705 92.2139 6.77588 92.1109 7.39712L92.0981 7.5136H92.0852C92.0981 7.55243 92.0981 7.6042 92.1109 7.64303C92.1109 7.68186 92.1238 7.70774 92.1238 7.74657C92.3683 8.41958 92.5227 9.15731 92.5999 9.93386C92.6643 10.6328 92.6514 11.3058 92.5613 11.9529C92.5485 12.0953 92.5613 12.2376 92.6128 12.3671C92.8316 12.9624 93.4621 12.8848 93.5393 12.2506C93.6423 11.474 93.6551 10.6716 93.5779 9.84326C93.5007 8.96317 93.3206 8.1219 93.0503 7.33241Z" fill="#FF3333"/>
<path d="M90.1936 9.22163C90.1035 9.00161 89.7818 9.0275 89.7304 9.26046L89.7175 9.29929C89.7175 9.31223 89.7304 9.32517 89.7304 9.35106C89.7304 9.364 89.7304 9.37695 89.7304 9.38989C89.8462 9.6358 89.9105 9.90759 89.9363 10.1923C89.962 10.4512 89.9491 10.6971 89.8977 10.9301C89.8848 10.9818 89.8977 11.0336 89.9105 11.0854C90.0135 11.3054 90.3223 11.2666 90.3738 11.0336C90.4381 10.7489 90.451 10.4512 90.4253 10.1406C90.3866 9.81699 90.3094 9.50637 90.1936 9.22163Z" fill="#FF3333"/>
<path d="M99.0985 9.23487C98.4679 4.29081 94.3243 0.343337 89.3701 0.0197733C87.916 -0.057882 86.4876 0.0844861 85.1107 0.602188C84.6346 0.783384 84.1842 0.977522 83.7466 1.21049C83.0003 1.59876 82.3311 2.03881 81.7392 2.55651C81.1215 3.07421 80.5811 3.66957 80.1178 4.32964C79.4229 5.30033 78.8825 6.41339 78.4964 7.68176C78.1876 8.71717 78.0203 9.77845 78.1361 10.8656C78.3162 12.7035 78.9339 14.4248 79.6417 16.1074C79.9505 16.8451 80.2851 17.5699 80.6197 18.2817C81.9966 21.1808 83.618 23.9635 85.3037 26.6944C85.9729 27.7686 87.0281 28.2345 88.0318 28.0274C88.6108 27.911 89.177 27.5745 89.6274 27.005C90.0135 26.5261 90.3995 26.0472 90.7856 25.5684C91.8408 24.2612 92.8702 22.954 93.874 21.6209C95.3795 19.6148 96.7564 17.5181 97.8888 15.2661C98.8411 13.3635 99.3687 11.3963 99.0985 9.23487ZM88.0961 17.7769C84.1456 17.4922 81.173 14.0495 81.4561 10.0761C81.7392 6.10277 85.1622 3.11304 89.1127 3.39778C93.0633 3.68251 96.0358 7.12523 95.7527 11.0986C95.4825 15.072 92.0467 18.0617 88.0961 17.7769Z" fill="#FF3333"/>
</svg>
