<svg width="22" height="29" viewBox="0 0 22 29" fill="none" xmlns="http://www.w3.org/2000/svg">
<path d="M11.6272 12.7681L11.4599 11.3315L11.0481 7.81115C11.0224 7.57818 10.8165 7.42287 10.5977 7.43581C10.5591 7.43581 10.5205 7.44875 10.4691 7.47464L5.39897 9.84313C5.23168 9.92078 5.1416 10.089 5.15447 10.2702L5.21881 10.8785C5.21881 10.8915 5.21882 10.9174 5.23169 10.9303V10.9691C5.23169 10.995 5.23168 11.008 5.24455 11.0338V11.0727C5.24455 11.1115 5.25742 11.1374 5.25742 11.1762C5.25742 11.215 5.27029 11.2668 5.27029 11.3056V11.3315C5.27029 11.3703 5.28315 11.4092 5.28315 11.448C5.28315 11.4739 5.29603 11.4998 5.29603 11.5257C5.29603 11.5774 5.30889 11.6292 5.30889 11.668C5.30889 11.6939 5.32177 11.7198 5.32177 11.7457V11.7716V11.7845V11.7975C5.32177 11.8104 5.33463 11.8233 5.33463 11.8363V11.8492C5.33463 11.8492 5.33463 11.8622 5.3475 11.8622C5.3475 11.8622 5.3475 11.8751 5.36037 11.8751C5.36037 11.888 5.37323 11.888 5.37323 11.901C5.37323 11.901 5.37324 11.9139 5.38611 11.9139C5.38611 11.9269 5.39897 11.9269 5.39897 11.9398C5.39897 11.9398 5.39897 11.9398 5.41184 11.9528L5.42471 11.9657C5.42471 11.9786 5.43758 11.9786 5.45045 11.9916L5.46331 12.0045L5.47618 12.0175C5.48905 12.0175 5.48905 12.0304 5.50192 12.0304C5.51478 12.0304 5.51479 12.0434 5.52765 12.0434C5.52765 12.0434 5.54052 12.0434 5.54052 12.0563C5.54052 12.0563 5.55339 12.0563 5.55339 12.0692H5.56626H5.57913C5.592 12.0692 5.60487 12.0822 5.61773 12.0822L6.27401 12.2116L6.40269 13.26C6.42843 13.5188 6.59572 13.7388 6.84022 13.8424L6.99464 13.9071C7.50937 14.1271 8.07556 13.7129 8.01122 13.1564L7.94688 12.5481L10.276 13.027L11.1253 13.2082C11.1639 13.2211 11.2154 13.2211 11.254 13.2082C11.4985 13.1952 11.6529 13.0011 11.6272 12.7681ZM6.82734 11.2668C6.56998 11.2539 6.38982 11.0338 6.40269 10.775C6.41556 10.5161 6.63432 10.3349 6.89168 10.3479C7.14905 10.3608 7.32921 10.5809 7.31634 10.8397C7.30347 11.0986 7.08471 11.2927 6.82734 11.2668ZM8.19138 11.1374C7.93402 11.1244 7.75386 10.9044 7.76673 10.6456C7.7796 10.3867 7.99836 10.2055 8.25572 10.2185C8.51309 10.2314 8.69324 10.4514 8.68037 10.7103C8.65464 10.9691 8.43588 11.1633 8.19138 11.1374ZM9.45247 10.9821C9.1951 10.9691 9.01495 10.7491 9.02782 10.4903C9.04069 10.2314 9.25944 10.0502 9.51681 10.0631C9.77417 10.0761 9.95433 10.2961 9.94146 10.555C9.92859 10.8009 9.70983 10.995 9.45247 10.9821Z" fill="#FF3333"/>
<path d="M13.6348 8.53628C13.4933 8.21272 13.03 8.25155 12.9399 8.58805L12.927 8.65276H12.9142C12.9142 8.67865 12.927 8.70453 12.927 8.71748C12.927 8.73042 12.927 8.7563 12.9399 8.76925C13.1072 9.13164 13.2102 9.53286 13.2488 9.94702C13.2874 10.3224 13.2616 10.6847 13.1844 11.0471C13.1715 11.1248 13.1844 11.2024 13.2102 11.2672C13.3517 11.5907 13.8278 11.539 13.8922 11.1895C13.9822 10.7753 14.008 10.3224 13.9694 9.88231C13.9308 9.41637 13.815 8.95044 13.6348 8.53628Z" fill="#FF3333"/>
<path d="M15.0503 7.33241C14.8444 6.73705 14.2139 6.77588 14.1109 7.39712L14.0981 7.5136H14.0852C14.0981 7.55243 14.0981 7.6042 14.1109 7.64303C14.1109 7.68186 14.1238 7.70774 14.1238 7.74657C14.3683 8.41958 14.5227 9.15731 14.5999 9.93386C14.6643 10.6328 14.6514 11.3058 14.5613 11.9529C14.5485 12.0953 14.5613 12.2376 14.6128 12.3671C14.8316 12.9624 15.4621 12.8848 15.5393 12.2506C15.6423 11.474 15.6551 10.6716 15.5779 9.84326C15.5007 8.96317 15.3206 8.1219 15.0503 7.33241Z" fill="#FF3333"/>
<path d="M12.1936 9.22163C12.1035 9.00161 11.7818 9.0275 11.7304 9.26046L11.7175 9.29929C11.7175 9.31223 11.7304 9.32517 11.7304 9.35106C11.7304 9.364 11.7304 9.37695 11.7304 9.38989C11.8462 9.6358 11.9105 9.90759 11.9363 10.1923C11.962 10.4512 11.9491 10.6971 11.8977 10.9301C11.8848 10.9818 11.8977 11.0336 11.9105 11.0854C12.0135 11.3054 12.3223 11.2666 12.3738 11.0336C12.4381 10.7489 12.451 10.4512 12.4253 10.1406C12.3866 9.81699 12.3094 9.50637 12.1936 9.22163Z" fill="#FF3333"/>
<path d="M21.0985 9.23487C20.4679 4.29081 16.3243 0.343337 11.3701 0.0197733C9.91596 -0.057882 8.48758 0.0844861 7.11068 0.602188C6.63456 0.783384 6.18417 0.977522 5.74665 1.21049C5.00029 1.59876 4.33114 2.03881 3.7392 2.55651C3.12152 3.07421 2.58106 3.66957 2.1178 4.32964C1.42292 5.30033 0.882456 6.41339 0.496408 7.68176C0.187571 8.71717 0.0202772 9.77845 0.136091 10.8656C0.316247 12.7035 0.933924 14.4248 1.64168 16.1074C1.95052 16.8451 2.28509 17.5699 2.61967 18.2817C3.99657 21.1808 5.61796 23.9635 7.3037 26.6944C7.97285 27.7686 9.02805 28.2345 10.0318 28.0274C10.6108 27.911 11.177 27.5745 11.6274 27.005C12.0135 26.5261 12.3995 26.0472 12.7856 25.5684C13.8408 24.2612 14.8702 22.954 15.874 21.6209C17.3795 19.6148 18.7564 17.5181 19.8888 15.2661C20.8411 13.3635 21.3687 11.3963 21.0985 9.23487ZM10.0961 17.7769C6.14556 17.4922 3.173 14.0495 3.4561 10.0761C3.73921 6.10277 7.16216 3.11304 11.1127 3.39778C15.0633 3.68251 18.0358 7.12523 17.7527 11.0986C17.4825 15.072 14.0467 18.0617 10.0961 17.7769Z" fill="#FF3333"/>
</svg>
