<svg width="32" height="18" viewBox="0 0 32 18" fill="none" xmlns="http://www.w3.org/2000/svg">
<g id="Group">
<g id="Group_2">
<path id="Vector" d="M1.45455 14.5455H30.5455V17.4545H1.45455V14.5455ZM3.12727 8.65455L4.36364 6.50182L5.6 8.65455L7.49091 7.56364L6.25455 5.41091H8.72727V3.22909H6.25455L7.49091 1.09091L5.6 0L4.36364 2.13818L3.12727 0L1.23636 1.09091L2.47273 3.22909H0V5.41091H2.47273L1.23636 7.56364L3.12727 8.65455ZM12.8727 7.56364L14.7636 8.65455L16 6.50182L17.2364 8.65455L19.1273 7.56364L17.8909 5.41091H20.3636V3.22909H17.8909L19.1273 1.09091L17.2364 0L16 2.13818L14.7636 0L12.8727 1.09091L14.1091 3.22909H11.6364V5.41091H14.1091L12.8727 7.56364ZM32 3.22909H29.5273L30.7636 1.09091L28.8727 0L27.6364 2.13818L26.4 0L24.5091 1.09091L25.7455 3.22909H23.2727V5.41091H25.7455L24.5091 7.56364L26.4 8.65455L27.6364 6.50182L28.8727 8.65455L30.7636 7.56364L29.5273 5.41091H32V3.22909Z" fill="black" fill-opacity="0.6"/>
</g>
</g>
</svg>
